<?xml version="1.0" encoding="UTF-8" standalone="no"?>
<svg
   xmlns:dc="http://purl.org/dc/elements/1.1/"
   xmlns:cc="http://creativecommons.org/ns#"
   xmlns:rdf="http://www.w3.org/1999/02/22-rdf-syntax-ns#"
   xmlns:svg="http://www.w3.org/2000/svg"
   xmlns="http://www.w3.org/2000/svg"
   xmlns:sodipodi="http://sodipodi.sourceforge.net/DTD/sodipodi-0.dtd"
   xmlns:inkscape="http://www.inkscape.org/namespaces/inkscape"
   version="1.1"
   id="Layer_1"
   x="0px"
   y="0px"
   width="800"
   height="600"
   viewBox="0 0 800 600"
   enable-background="new 0 0 15332.465 16050.418"
   xml:space="preserve"
   sodipodi:docname="n3DS.svg"
   inkscape:version="1.0.2-2 (e86c870879, 2021-01-15)"><metadata
   id="metadata1237"><rdf:RDF><cc:Work
       rdf:about=""><dc:format>image/svg+xml</dc:format><dc:type
         rdf:resource="http://purl.org/dc/dcmitype/StillImage" /><dc:title /></cc:Work></rdf:RDF></metadata><defs
   id="defs1235" /><sodipodi:namedview
   pagecolor="#ffffff"
   bordercolor="#666666"
   borderopacity="1"
   objecttolerance="10"
   gridtolerance="10"
   guidetolerance="10"
   inkscape:pageopacity="0"
   inkscape:pageshadow="2"
   inkscape:window-width="1920"
   inkscape:window-height="1027"
   id="namedview1233"
   showgrid="false"
   inkscape:zoom="1"
   inkscape:cx="475.01199"
   inkscape:cy="330.21367"
   inkscape:window-x="-8"
   inkscape:window-y="-8"
   inkscape:window-maximized="1"
   inkscape:current-layer="Layer_1"
   fit-margin-top="0"
   fit-margin-left="0"
   fit-margin-right="0"
   fit-margin-bottom="0"
   inkscape:document-rotation="0" />
<g
   id="g1230"
   transform="matrix(0.03735808,0,0,0.03735808,113.60427,0.19360016)">
	<path
   fill="none"
   stroke="#414042"
   stroke-width="151.34"
   stroke-linejoin="round"
   d="m 14197.639,15974.748 c 578.098,0 1045.92,-468.165 1045.92,-1045.806 v -6314.52 c 0,0 8.07,-869.878 -9.777,-909.102 0,0 9.777,-5.454 9.777,-22.851 v -46.327 c 0,-90.098 -72.986,-163.084 -162.684,-163.084 89.697,0 162.684,-72.871 162.684,-162.856 V 1121.648 c 0,-577.872 -467.822,-1045.979 -1045.92,-1045.979 H 1134.711 C 557.295,75.67 88.848,543.776 88.848,1121.648 v 6188.555 c 0,89.985 72.986,162.856 163.084,162.856 -90.098,0 -163.084,72.986 -163.084,163.084 v 46.327 c 0,17.396 10.232,22.851 10.232,22.851 -18.191,39.223 -10.232,909.102 -10.232,909.102 v 6314.52 c 0,577.641 468.447,1045.806 1045.863,1045.806 h 13062.928 z"
   id="path1036" />
	<path
   fill="#ffffff"
   d="m 14197.639,15974.748 c 578.098,0 1045.92,-468.165 1045.92,-1045.806 v -6314.52 c 0,0 8.07,-869.878 -9.777,-909.102 0,0 9.777,-5.454 9.777,-22.851 v -46.327 c 0,-90.098 -72.986,-163.084 -162.684,-163.084 89.697,0 162.684,-72.871 162.684,-162.856 V 1121.648 c 0,-577.872 -467.822,-1045.979 -1045.92,-1045.979 H 1134.711 C 557.295,75.67 88.848,543.776 88.848,1121.648 v 6188.555 c 0,89.985 72.986,162.856 163.084,162.856 -90.098,0 -163.084,72.986 -163.084,163.084 v 46.327 c 0,17.396 10.232,22.851 10.232,22.851 -18.191,39.223 -10.232,909.102 -10.232,909.102 v 6314.52 c 0,577.641 468.447,1045.806 1045.863,1045.806 h 13062.928 z"
   id="path1038" />
	<path
   fill="none"
   stroke="#414042"
   stroke-width="58.2078"
   stroke-linejoin="round"
   d="m 14197.639,15974.748 c 578.098,0 1045.92,-468.165 1045.92,-1045.806 v -6314.52 c 0,0 8.07,-869.878 -9.777,-909.102 0,0 9.777,-5.454 9.777,-22.851 v -46.327 c 0,-90.098 -72.986,-163.084 -162.684,-163.084 89.697,0 162.684,-72.871 162.684,-162.856 V 1121.648 c 0,-577.872 -467.822,-1045.979 -1045.92,-1045.979 H 1134.711 C 557.295,75.67 88.848,543.776 88.848,1121.648 v 6188.555 c 0,89.985 72.986,162.856 163.084,162.856 -90.098,0 -163.084,72.986 -163.084,163.084 v 46.327 c 0,17.396 10.232,22.851 10.232,22.851 -18.191,39.223 -10.232,909.102 -10.232,909.102 v 6314.52 c 0,577.641 468.447,1045.806 1045.863,1045.806 h 13062.928 z"
   id="path1040" />
	<path
   fill="none"
   stroke="#414042"
   stroke-width="58.2078"
   stroke-linejoin="round"
   d="m 99.081,7705.21 c 49.112,-106.412 156.944,-180.479 281.716,-180.479 h 1311.552 m 12505.29,8450.017 c 578.098,0 1045.92,-468.165 1045.92,-1045.806 v -6314.52 c 0,0 8.07,-869.878 -9.777,-909.102 0,0 9.777,-5.454 9.777,-22.851 v -46.327 c 0,-90.098 -72.986,-163.084 -162.684,-163.084 89.697,0 162.684,-72.871 162.684,-162.856 V 1121.648 c 0,-577.872 -467.822,-1045.979 -1045.92,-1045.979 H 1134.711 C 557.295,75.67 88.848,543.776 88.848,1121.648 v 6188.555 c 0,89.985 72.986,162.856 163.084,162.856 -90.098,0 -163.084,72.986 -163.084,163.084 v 46.327 c 0,17.396 10.232,22.851 10.232,22.851 -18.191,39.223 -10.232,909.102 -10.232,909.102 v 6314.52 c 0,577.641 468.447,1045.806 1045.863,1045.806 h 13062.928 z"
   id="path1042" />
	<path
   fill="#414042"
   d="m 1505.501,3330.986 c 0,47.861 -38.881,86.858 -86.744,86.858 -47.975,0 -86.856,-38.997 -86.856,-86.858 0,-47.805 38.882,-86.744 86.856,-86.744 47.864,0 86.744,38.939 86.744,86.744"
   id="path1044" />
	<path
   fill="none"
   stroke="#414042"
   stroke-width="58.2078"
   stroke-linejoin="round"
   d="m 3039.594,10433.188 c 0,678.711 -550.302,1229.184 -1229.467,1229.184 -678.543,0 -1228.845,-550.473 -1228.845,-1229.184 0,-678.371 550.302,-1229.073 1228.845,-1229.073 679.165,0 1229.467,550.702 1229.467,1229.073 z"
   id="path1046" />
	<g
   id="g2531" />
	
	<path
   fill="#414042"
   d="m 1936.831,3330.986 c 0,47.861 -38.882,86.858 -86.63,86.858 -47.975,0 -86.856,-38.997 -86.856,-86.858 0,-47.805 38.882,-86.744 86.856,-86.744 47.748,0 86.63,38.939 86.63,86.744"
   id="path1052" />
	<path
   fill="#bcbec0"
   d="m 88.848,6091.193 h 138.073 c 69.461,0 125.681,-56.332 125.681,-125.738 V 4456.602 c 0,-69.463 -56.22,-125.682 -125.681,-125.682 H 88.848 Z"
   id="path1054" />
	<path
   fill="none"
   stroke="#414042"
   stroke-width="58.2078"
   stroke-linejoin="round"
   d="m 88.848,6091.193 h 138.073 c 69.461,0 125.681,-56.332 125.681,-125.738 V 4456.602 c 0,-69.463 -56.22,-125.682 -125.681,-125.682 H 88.848 Z"
   id="path1056" />
	<path
   fill="#414042"
   d="m 1074.172,3330.986 c 0,47.861 -38.881,86.858 -86.857,86.858 -47.861,0 -86.742,-38.997 -86.742,-86.858 0,-47.805 38.881,-86.744 86.742,-86.744 47.977,0 86.857,38.939 86.857,86.744"
   id="path1058" />
	<path
   fill="#414042"
   d="m 1505.501,3762.314 c 0,47.976 -38.881,86.857 -86.744,86.857 -47.975,0 -86.856,-38.881 -86.856,-86.857 0,-47.749 38.882,-86.743 86.856,-86.743 47.864,0 86.744,38.994 86.744,86.743"
   id="path1060" />
	<path
   fill="#414042"
   d="m 1505.501,2899.657 c 0,47.861 -38.881,86.857 -86.744,86.857 -47.975,0 -86.856,-38.997 -86.856,-86.857 0,-47.805 38.882,-86.687 86.856,-86.687 47.864,0 86.744,38.883 86.744,86.687"
   id="path1062" />
	<path
   fill="none"
   stroke="#414042"
   stroke-width="58.2078"
   stroke-linejoin="round"
   d="m 12418.779,7429.062 c 85.377,0 154.84,-69.518 154.84,-155.07 V 1554.967 c 0,-162.742 -131.99,-294.792 -294.678,-294.792 H 3053.806 c -162.856,0 -294.734,132.05 -294.734,294.792 v 5719.025 c 0,85.553 69.35,155.07 154.9,155.07 z m 2814.776,276.148 c -49.002,-106.412 -156.773,-180.479 -281.717,-180.479 h -1311.381 m -2515.553,8450.017 c 433.148,0 784.326,-350.952 784.326,-784.099 l -0.227,-6424.341 c 0,-147.113 -119.484,-266.712 -266.482,-266.712 H 3690.284 c -147.284,0 -266.71,119.599 -266.71,266.712 v 6424.341 c 0,433.146 350.952,784.099 784.043,784.099 z M 70.886,8189.687 c 0,171.328 138.641,309.91 309.682,309.91 H 1692.235 V 7473.175 H 251.932 M 4755.247,648.312 c 0,119.087 -96.634,215.721 -215.722,215.721 -119.087,0 -215.607,-96.634 -215.607,-215.721 0,-119.087 96.52,-215.606 215.607,-215.606 119.088,-0.001 215.722,96.519 215.722,215.606 z"
   id="path1064" />
	<path
   fill="#414042"
   d="m 13827.248,3330.986 c 0,47.861 38.654,86.858 86.629,86.858 48.09,0 86.744,-38.997 86.744,-86.858 0,-47.805 -38.654,-86.744 -86.744,-86.744 -47.975,0 -86.629,38.939 -86.629,86.744"
   id="path1066" />
	
	
	
	
	<path
   fill="none"
   stroke="#414042"
   stroke-width="58.2078"
   stroke-linejoin="round"
   d="m 7933.708,15697.692 c 188.721,0 341.516,-152.908 341.516,-341.289 0,-188.719 -152.795,-341.854 -341.516,-341.854 H 7399.04 c -188.608,0 -341.574,153.135 -341.574,341.854 0,188.381 152.966,341.289 341.574,341.289 z"
   id="path1076"
   sodipodi:nodetypes="sssssss" />
	<path
   fill="#414042"
   d="m 13395.689,3330.986 c 0,47.861 38.883,86.858 86.859,86.858 48.09,0 86.855,-38.997 86.855,-86.858 0,-47.805 -38.766,-86.744 -86.855,-86.744 -47.976,0 -86.859,38.939 -86.859,86.744"
   id="path1078" />
	<path
   fill="#bcbec0"
   d="m 15243.559,6091.193 h -137.674 c -69.688,0 -125.736,-56.332 -125.736,-125.738 V 4456.602 c 0,-69.463 56.049,-125.682 125.736,-125.682 h 137.674 z"
   id="path1080" />
	<path
   fill="none"
   stroke="#414042"
   stroke-width="58.2078"
   stroke-linejoin="round"
   d="m 15243.559,6091.193 h -137.674 c -69.688,0 -125.736,-56.332 -125.736,-125.738 V 4456.602 c 0,-69.463 56.049,-125.682 125.736,-125.682 h 137.674 z"
   id="path1082" />
	<path
   fill="#414042"
   d="m 14258.576,3330.986 c 0,47.861 38.879,86.858 86.742,86.858 47.977,0 86.857,-38.997 86.857,-86.858 0,-47.805 -38.881,-86.744 -86.857,-86.744 -47.863,0 -86.742,38.939 -86.742,86.744"
   id="path1084" />
	<path
   fill="#414042"
   d="m 13827.248,3762.314 c 0,47.976 38.654,86.857 86.629,86.857 48.09,0 86.744,-38.881 86.744,-86.857 0,-47.749 -38.654,-86.743 -86.744,-86.743 -47.975,0 -86.629,38.994 -86.629,86.743"
   id="path1086" />
	<path
   fill="#414042"
   d="m 13827.248,2899.657 c 0,47.861 38.654,86.857 86.629,86.857 48.09,0 86.744,-38.997 86.744,-86.857 0,-47.805 -38.654,-86.687 -86.744,-86.687 -47.975,0 -86.629,38.883 -86.629,86.687"
   id="path1088" />
	<path
   fill="none"
   stroke="#414042"
   stroke-width="58.2078"
   stroke-linejoin="round"
   d="M 1692.348,8499.597 H 13640.457 M 1692.348,7562.135 H 13640.457 M 2797.328,12912.702 c 0,-47.521 -38.88,-86.288 -86.346,-86.288 h -485.443 c -47.632,0 -86.515,-38.997 -86.515,-86.289 v -485.671 c 0,-47.521 -38.768,-86.289 -86.174,-86.289 h -485.786 c -47.35,0 -86.23,38.768 -86.23,86.289 v 485.671 c 0,47.292 -38.881,86.289 -86.176,86.289 H 908.872 c -47.293,0 -86.174,38.768 -86.174,86.288 v 485.558 c 0,47.521 38.881,86.515 86.174,86.515 h 485.785 c 47.295,0 86.176,38.769 86.176,86.176 v 485.671 c 0,47.636 38.881,86.289 86.23,86.289 h 485.786 c 47.406,0 86.174,-38.653 86.174,-86.289 v -485.671 c 0,-47.407 38.883,-86.176 86.515,-86.176 h 485.443 c 47.466,0 86.346,-38.994 86.346,-86.515 v -485.558 z M 15261.861,8189.687 c 0,171.328 -138.811,309.91 -309.795,309.91 H 13640.687 V 7473.175 h 1439.848 M 8092.303,648.312 c 0,86.629 70.258,156.832 156.773,156.832 86.631,0 156.66,-70.203 156.66,-156.832 0,-86.459 -70.029,-156.66 -156.66,-156.66 -86.515,-10e-4 -156.773,70.201 -156.773,156.66 z m 2485.199,0 c 0,119.087 96.52,215.721 215.666,215.721 118.916,0 215.436,-96.634 215.436,-215.721 0,-119.087 -96.52,-215.606 -215.436,-215.606 -119.147,-0.001 -215.666,96.519 -215.666,215.606 z"
   id="path1090" />
	<path
   fill="#bcbec0"
   d="m 13460.266,15974.748 v -134.604 c 0,-11.938 9.777,-21.598 21.715,-21.598 h 89.697 c 11.938,0 21.713,9.659 21.713,21.598 v 134.604 z"
   id="path1092" />
	<path
   fill="none"
   stroke="#414042"
   stroke-width="58.2078"
   stroke-linejoin="round"
   d="m 13460.266,15974.748 v -134.604 c 0,-11.938 9.777,-21.598 21.715,-21.598 h 89.697 c 11.938,0 21.713,9.659 21.713,21.598 v 134.604 z"
   id="path1094" />
	<path
   fill="#bcbec0"
   d="m 12604.656,15974.748 v -134.604 c 0,-11.938 9.777,-21.598 21.713,-21.598 h 89.928 c 11.596,0 21.713,9.659 21.713,21.598 v 134.604 z"
   id="path1096" />
	<path
   fill="none"
   stroke="#414042"
   stroke-width="58.2078"
   stroke-linejoin="round"
   d="m 12604.656,15974.748 v -134.604 c 0,-11.938 9.777,-21.598 21.713,-21.598 h 89.928 c 11.596,0 21.713,9.659 21.713,21.598 v 134.604 z"
   id="path1098" />
	<path
   fill="#bcbec0"
   d="m 11749.389,15974.748 v -134.604 c 0,-11.938 9.777,-21.598 21.258,-21.598 h 90.154 c 11.711,0 21.486,9.659 21.486,21.598 v 134.604 z"
   id="path1100" />
	<path
   fill="none"
   stroke="#414042"
   stroke-width="58.2078"
   stroke-linejoin="round"
   d="m 11749.389,15974.748 v -134.604 c 0,-11.938 9.777,-21.598 21.258,-21.598 h 90.154 c 11.711,0 21.486,9.659 21.486,21.598 v 134.604 z"
   id="path1102" />
	<path
   fill="#414042"
   d="m 10728.705,15974.748 v -123.92 c 0,-11.935 9.891,-21.485 21.486,-21.485 h 90.043 c 11.822,0 21.826,9.551 21.826,21.485 v 123.92 z"
   id="path1104" />
	<path
   fill="none"
   stroke="#414042"
   stroke-width="58.2078"
   stroke-linejoin="round"
   d="m 10728.705,15974.748 v -123.92 c 0,-11.935 9.891,-21.485 21.486,-21.485 h 90.043 c 11.822,0 21.826,9.551 21.826,21.485 v 123.92 z"
   id="path1106" />
	<path
   fill="#bcbec0"
   d="m 14493.453,8074.636 c 0,29.67 -24.33,53.887 -54.115,53.887 h -107.549 c -29.787,0 -54.115,-24.217 -54.115,-53.887 v -108.117 c 0,-29.332 24.328,-53.774 54.115,-53.774 h 107.549 c 29.785,0 54.115,24.442 54.115,53.774 z"
   id="path1108" />
	<path
   fill="none"
   stroke="#414042"
   stroke-width="58.2078"
   stroke-linejoin="round"
   d="m 14493.453,8074.636 c 0,29.67 -24.33,53.887 -54.115,53.887 h -107.549 c -29.787,0 -54.115,-24.217 -54.115,-53.887 v -108.117 c 0,-29.332 24.328,-53.774 54.115,-53.774 h 107.549 c 29.785,0 54.115,24.442 54.115,53.774 z"
   id="path1110" />
	<path
   fill="#414042"
   d="m 566.618,6137.748 c -54.171,0 -94.19,-38.879 -94.19,-93.906 0,-55.536 40.02,-93.279 94.19,-93.279 54.342,0 94.645,37.743 94.645,93.279 -0.001,55.027 -40.304,93.906 -94.645,93.906 m 0,-165.414 c -41.211,0 -67.304,32.627 -67.304,71.508 0,39.792 26.318,71.452 67.304,71.452 41.211,0 67.757,-31.66 67.757,-71.452 0,-38.881 -26.207,-71.508 -67.757,-71.508"
   id="path1112" />
	<polygon
   fill="#414042"
   points="720.152,6133.259 695.255,6133.259 695.255,5954.997 806.438,5954.997 806.438,5976.995 720.152,5976.995 720.152,6032.303 800.926,6032.303 800.926,6053.847 720.152,6053.847 "
   id="polygon1114" />
	<polygon
   fill="#414042"
   points="863.226,6133.259 838.442,6133.259 838.442,5954.997 949.458,5954.997 949.458,5976.995 863.226,5976.995 863.226,6032.303 944.003,6032.303 944.003,6053.847 863.226,6053.847 "
   id="polygon1116" />
	<path
   fill="#414042"
   d="m 530.182,5601.658 c 0,5.855 4.887,10.628 10.799,10.628 5.967,0 10.685,-4.773 10.685,-10.628 l 247.782,-959.803 c 1.592,-5.742 -1.989,-10.403 -7.959,-10.403 H 540.981 c -5.912,0 -10.799,4.887 -10.799,10.856 z"
   id="path1118" />
	<polygon
   fill="#414042"
   points="980.894,5104.219 1022.502,5104.219 935.19,5322.043 901.654,5322.043 815.591,5104.219 859.02,5104.219 919.104,5272.021 920.126,5272.021 "
   id="polygon1120" />
	<path
   fill="#414042"
   d="m 1149.604,5098.648 c 68.214,0 117.608,44.112 117.608,113.857 0,67.986 -49.395,115.109 -117.608,115.109 -66.848,0 -116.414,-47.124 -116.414,-115.109 0,-69.744 49.566,-113.857 116.414,-113.857 m 0.456,194.178 c 44.735,0 75.09,-33.878 75.09,-80.32 0,-44.677 -29.786,-79.639 -75.09,-79.639 -44.792,0 -74.864,34.961 -74.864,79.639 0,46.442 30.524,80.32 74.864,80.32"
   id="path1122" />
	<polygon
   fill="#414042"
   points="1343.783,5287.597 1436.324,5287.597 1436.324,5322.043 1305.015,5322.043 1305.015,5104.219 1343.783,5104.219 "
   id="polygon1124" />
	<path
   fill="#414042"
   d="m 1487.935,5276.625 c 13.131,0 24.56,10.062 24.56,23.307 0,13.3 -11.199,23.987 -24.56,23.987 -12.957,0 -24.611,-10.119 -24.611,-23.421 0,-13.127 11.198,-23.873 24.611,-23.873"
   id="path1126" />
	<path
   fill="#414042"
   d="m 550.417,5731.831 c 29.786,0 53.889,24.099 53.889,53.546 0,30.068 -24.103,54.057 -53.889,54.057 -29.672,0 -53.773,-23.989 -53.773,-54.057 -0.001,-29.448 24.101,-53.546 53.773,-53.546"
   id="path1128" />
	<path
   fill="#414042"
   d="m 1783.467,12402.361 v 323.895 c 0,14.664 11.88,26.375 26.66,26.375 14.665,0 26.546,-11.711 26.546,-26.375 v -323.895 c 0,-14.78 -11.881,-26.718 -26.546,-26.718 -14.78,0 -26.66,11.938 -26.66,26.718"
   id="path1130"
   class="theme-button"
   ojd-button="UP" />
	<path
   fill="#414042"
   d="m 1056.835,13182.026 h 323.726 c 14.778,0 26.66,-11.711 26.66,-26.488 0,-14.78 -11.882,-26.604 -26.66,-26.604 h -323.726 c -14.78,0 -26.66,11.824 -26.66,26.604 0,14.777 11.88,26.488 26.66,26.488"
   id="path1132"
   class="theme-button"
   ojd-button="LEFT" />
	<path
   fill="#414042"
   d="m 1836.673,13908.714 v -323.668 c 0,-14.778 -11.881,-26.716 -26.66,-26.716 -14.666,0 -26.661,11.938 -26.661,26.716 v 323.668 c 0,14.665 11.995,26.717 26.661,26.717 14.779,0 26.66,-12.052 26.66,-26.717"
   id="path1134"
   class="theme-button"
   ojd-button="DOWN" />
	<path
   fill="#414042"
   d="m 2563.245,13128.934 h -323.781 c -14.778,0 -26.66,11.824 -26.66,26.604 0,14.777 11.882,26.715 26.66,26.715 h 323.781 c 14.666,0 26.434,-11.938 26.434,-26.715 0,-14.78 -11.768,-26.604 -26.434,-26.604"
   id="path1136"
   class="theme-button"
   ojd-button="RIGHT" />
	<path
   fill="#414042"
   d="m 14453.207,6137.408 c -54.113,0 -94.02,-38.994 -94.02,-93.793 0,-55.649 39.906,-93.394 94.02,-93.394 54.342,0 94.703,37.745 94.703,93.394 0,54.799 -40.361,93.793 -94.703,93.793 m 0,-165.303 c -40.812,0 -67.301,32.515 -67.301,71.509 0,39.564 26.717,71.34 67.301,71.34 41.496,0 67.758,-31.775 67.758,-71.34 0,-38.993 -26.035,-71.509 -67.758,-71.509"
   id="path1138" />
	<polygon
   fill="#414042"
   points="14607.025,6132.861 14582.242,6132.861 14582.242,5954.656 14693.428,5954.656 14693.428,5976.541 14607.025,5976.541 14607.025,6031.963 14687.631,6031.963 14687.631,6053.394 14607.025,6053.394 "
   id="polygon1140" />
	<polygon
   fill="#414042"
   points="14749.932,6132.861 14725.146,6132.861 14725.146,5954.656 14836.105,5954.656 14836.105,5976.541 14749.932,5976.541 14749.932,6031.963 14830.877,6031.963 14830.877,6053.394 14749.932,6053.394 "
   id="polygon1142" />
	<path
   fill="#414042"
   d="m 14782.104,5731.602 c -29.557,0 -53.434,24.103 -53.434,53.546 0,30.071 23.877,54.002 53.434,54.002 29.672,0 53.773,-23.931 53.773,-54.002 0,-29.444 -24.102,-53.546 -53.773,-53.546"
   id="path1144" />
	<path
   fill="#414042"
   d="m 14802.682,5601.316 c 0,5.97 -5.229,10.744 -11.027,10.744 -5.912,0 -10.459,-4.774 -10.459,-10.744 l -247.838,-959.689 c -1.705,-5.741 1.932,-10.402 7.617,-10.402 h 250.68 c 5.799,0 11.027,4.889 11.027,10.857 z"
   id="path1146" />
	<path
   fill="#414042"
   d="m 13991.07,5191.645 h 10.574 c 23.873,0 51.045,-6.708 51.045,-35.811 0,-21.544 -17.736,-34.221 -37.973,-34.221 -19.326,0 -32.969,12.45 -37.857,30.47 l -37.971,-9.779 c 8.523,-31.775 39.562,-54.229 77.76,-54.229 41.723,0 76.627,22.453 76.627,64.916 0,25.636 -17.055,47.406 -42.977,53.831 v 0.683 c 28.879,5.684 48.889,27.795 48.889,57.012 0,49.397 -42.293,73.158 -82.539,73.158 -39.904,0 -73.668,-16.426 -86.629,-56.161 l 37.744,-11.597 c 5.912,18.702 22.168,33.481 47.635,33.481 20.578,0 43.428,-10.799 43.428,-39.222 0,-30.809 -32.855,-40.246 -57.752,-40.246 h -10.004 z"
   id="path1148" />
	<path
   fill="#414042"
   d="m 14150.914,5093.874 h 84.24 c 62.076,0 131.197,29.56 131.197,118.747 0,83.332 -69.121,118.858 -131.197,118.858 h -84.24 z m 77.535,200.715 c 43.428,0 92.541,-17.792 92.541,-81.968 0,-68.1 -49.113,-82.424 -92.541,-82.424 h -35.586 v 164.392 z"
   id="path1150" />
	<polygon
   fill="#414042"
   points="13381.139,10677.842 13494.371,10510.152 13392.508,10361.222 13446.734,10361.222 13522.564,10479.229 13597.939,10361.222 13649.668,10361.222 13548.6,10511.063 13663.311,10677.842 13607.717,10677.842 13520.973,10544.487 13435.707,10677.842 "
   id="polygon1152" />
	<path
   fill="#414042"
   d="m 13421.156,11978.876 h 109.482 c 47.975,0 99.816,19.782 99.816,80.149 0,35.13 -22.51,60.255 -55.82,69.122 v 1.023 c 40.926,4.889 70.598,32.854 70.598,77.079 0,61.163 -52.977,90.155 -119.484,90.155 h -104.592 z m 44.682,134.266 h 57.637 c 34.221,0 62.301,-15.008 62.301,-49.342 0,-34.106 -27.4,-47.748 -69.35,-47.748 h -50.588 z m 0,145.746 h 55.59 c 37.859,0 78.445,-11.711 78.445,-54.799 0,-37.288 -26.035,-53.432 -74.465,-53.432 h -59.57 z"
   id="path1154" />
	<polygon
   fill="#414042"
   points="12648.766,11351.437 12529.734,11170.902 12584.533,11170.902 12672.414,11314.489 12761.09,11170.788 12812.703,11170.788 12693.561,11351.437 12693.561,11488.656 12648.766,11488.656 "
   id="polygon1156" />
	<path
   fill="#414042"
   d="m 14268.354,11482.746 h -49 l 137.221,-316.733 h 40.359 l 135.969,316.733 h -50.137 l -32.172,-77.876 h -150.295 z m 47.634,-116.757 h 118.348 l -59.117,-148.589 z"
   id="path1158" />
	<path
   fill="#414042"
   d="m 7861.86,15322.071 c -62.413,-53.092 -125.398,-106.299 -187.355,-159.048 -6.027,-5.342 -10.234,-5.342 -16.144,0 -62.585,52.749 -125.228,105.956 -187.413,159.048 -11.257,9.549 -6.595,22.053 8.07,22.053 h 24.102 c 8.811,0 12.79,3.754 12.79,12.62 v 163.144 c 0,8.639 3.469,12.505 12.562,12.505 h 275.637 c 9.093,0 12.959,-3.866 12.959,-12.505 v -163.144 c 0,-8.866 3.41,-12.62 12.277,-12.62 h 24.33 c 14.892,0 19.212,-12.504 8.185,-22.053 m -132.788,122.44 c 0,8.868 -3.637,12.507 -12.731,12.507 h -100.215 c -8.925,0 -12.562,-3.639 -12.562,-12.507 v -75.26 c 0,-8.98 3.637,-12.507 12.562,-12.507 h 100.215 c 8.64,0 12.506,3.413 12.731,11.938 z"
   id="path1160"
   class="theme-button"
   ojd-button="XBOX" />
	<polygon
   fill="#414042"
   points="10725.635,15604.128 10769.975,15604.128 10769.975,15762.496 10741.779,15762.496 10741.779,15635.28 10741.555,15635.28 10693.234,15762.496 10673.568,15762.496 10626.273,15635.28 10625.82,15635.28 10625.82,15762.496 10598.762,15762.496 10598.762,15604.128 10643.1,15604.128 10684.027,15716.68 10684.709,15716.68 "
   id="polygon1162" />
	<rect
   x="10804.763"
   y="15604.017"
   fill="#414042"
   width="28.193001"
   height="158.369"
   id="rect1164" />
	<path
   fill="#414042"
   d="m 10982.342,15641.192 c -8.412,-11.257 -23.42,-16.256 -35.926,-16.256 -32.855,0 -54.797,25.579 -54.797,57.976 0,34.567 20.918,58.437 53.66,58.437 16.826,0 30.24,-7.273 38.428,-18.417 l 22.51,16.03 c -13.871,17.395 -34.562,27.74 -61.393,27.74 -49.34,0 -84.582,-34.447 -84.582,-83.79 0,-50.703 37.061,-82.649 86.174,-82.649 20.35,0 44.793,7.617 57.525,24.104 z"
   id="path1166" />
	<path
   fill="#414042"
   d="m 12983.008,14712.595 c -7.164,-9.891 -22.283,-17.053 -36.041,-17.053 -16.484,0 -35.129,7.732 -35.129,27.171 0,18.191 15.35,23.192 37.744,30.354 25.24,7.844 57.98,18.986 57.98,57.869 0,42.518 -33.424,63.207 -72.305,63.207 -25.578,0 -52.295,-9.775 -67.984,-27.966 l 25.24,-23.647 c 9.775,13.303 27.51,21.715 43.199,21.715 16.938,0 36.039,-8.186 36.039,-29.332 0,-20.463 -20.805,-26.375 -45.816,-34.561 -23.875,-7.391 -50.023,-19.098 -50.023,-56.048 0,-40.246 36.723,-58.208 72.422,-58.208 19.895,0 42.516,7.277 57.752,21.488 z"
   id="path1168" />
	<polygon
   fill="#414042"
   points="13077.934,14837.878 13179.004,14837.878 13179.004,14869.142 13042.807,14869.142 13042.807,14671.099 13174.002,14671.099 13174.002,14701.909 13077.934,14701.909 13077.934,14752.272 13168.771,14752.272 13168.771,14781.944 13077.934,14781.944 "
   id="polygon1170" />
	<polygon
   fill="#414042"
   points="13248.691,14837.878 13332.936,14837.878 13332.936,14869.142 13213.678,14869.142 13213.678,14671.099 13248.691,14671.099 "
   id="polygon1172" />
	<polygon
   fill="#414042"
   points="13391.598,14837.878 13492.779,14837.878 13492.779,14869.142 13356.355,14869.142 13356.355,14671.099 13487.551,14671.099 13487.551,14701.909 13391.598,14701.909 13391.598,14752.272 13482.549,14752.272 13482.549,14781.944 13391.598,14781.944 "
   id="polygon1174" />
	<path
   fill="#414042"
   d="m 13670.018,14717.37 c -10.004,-14.211 -29.105,-20.35 -44.906,-20.35 -40.928,0 -68.895,31.604 -68.895,72.418 0,43.201 26.49,73.215 67.303,73.215 21.488,0 38.086,-9.322 48.201,-23.191 l 28.539,19.895 c -17.625,21.828 -43.316,34.787 -76.969,34.787 -61.844,0 -105.729,-42.857 -105.729,-104.705 0,-63.438 46.5,-103.455 107.549,-103.455 25.805,0 55.936,9.665 71.85,30.126 z"
   id="path1176" />
	<polygon
   fill="#414042"
   points="13879.656,14701.796 13818.605,14701.796 13818.605,14869.028 13783.137,14869.028 13783.137,14701.796 13722.77,14701.796 13722.77,14671.099 13879.656,14671.099 "
   id="polygon1178" />
	<path
   fill="#414042"
   d="m 12983.008,13826.177 c -7.164,-9.891 -22.283,-16.938 -36.041,-16.938 -16.484,0 -35.129,7.73 -35.129,27.056 0,18.077 15.35,23.42 37.744,30.47 25.24,7.73 57.98,18.871 57.98,57.98 0,42.403 -33.424,63.096 -72.305,63.096 -25.578,0 -52.295,-9.664 -67.984,-28.193 l 25.24,-23.533 c 9.775,13.527 27.51,21.713 43.199,21.713 16.938,0 36.039,-7.959 36.039,-29.219 0,-20.575 -20.805,-26.602 -45.816,-34.446 -23.875,-7.39 -50.023,-19.327 -50.023,-56.16 0,-40.359 36.723,-58.095 72.646,-58.095 19.67,0 42.52,6.935 57.527,21.145 z"
   id="path1180" />
	<polygon
   fill="#414042"
   points="13178.549,13815.718 13117.953,13815.718 13117.953,13982.838 13082.938,13982.838 13082.938,13815.718 13022.113,13815.718 13022.113,13785.022 13178.549,13785.022 "
   id="polygon1182" />
	<path
   fill="#414042"
   d="m 13263.814,13784.909 h 30.467 l 85.379,197.929 h -40.244 l -18.418,-45.361 h -85.834 l -17.963,45.361 h -39.561 z m 44.793,122.326 -30.355,-80.49 -31.264,80.49 z"
   id="path1184" />
	<path
   fill="#414042"
   d="m 13399.443,13785.022 h 68.553 c 37.402,0 72.986,14.666 72.986,56.503 0,28.534 -17.734,47.292 -44.906,53.434 l 52.523,87.879 h -42.518 l -45.816,-83.9 h -25.922 v 83.9 h -34.9 z m 63.778,85.038 c 19.783,0 42.404,-4.66 42.404,-28.763 0,-21.599 -21.031,-26.718 -39.107,-26.718 h -32.174 v 55.48 h 28.877 z"
   id="path1186" />
	<polygon
   fill="#414042"
   points="13711.285,13815.718 13650.465,13815.718 13650.465,13982.838 13615.105,13982.838 13615.105,13815.718 13554.512,13815.718 13554.512,13785.022 13711.285,13785.022 "
   id="polygon1188" />
	<path
   fill="#414042"
   d="m 7666.431,376.713 c 149.839,0 271.599,121.533 271.599,271.599 0,149.953 -121.76,271.713 -271.599,271.713 -150.18,0 -271.938,-121.76 -271.938,-271.713 0,-150.066 121.758,-271.599 271.938,-271.599 m 0,-53.545 c -179.513,0 -325.258,145.86 -325.258,325.144 0,179.399 145.745,325.258 325.258,325.258 179.285,0 325.146,-145.858 325.146,-325.258 0,-179.284 -145.861,-325.144 -325.146,-325.144"
   id="path1190" />
	<path
   fill="#414042"
   d="m 7666.431,376.713 c 149.727,0 271.599,119.43 271.599,271.713 0,149.839 -121.872,271.484 -271.599,271.484 -152.512,0 -271.938,-121.646 -271.938,-271.484 0,-152.283 119.426,-271.713 271.938,-271.713"
   id="path1192" />
	<path
   fill="none"
   stroke="#414042"
   stroke-width="58.2078"
   stroke-linejoin="round"
   d="m 7666.431,376.713 c 149.727,0 271.599,119.43 271.599,271.713 0,149.839 -121.872,271.484 -271.599,271.484 -152.512,0 -271.938,-121.646 -271.938,-271.484 0,-152.283 119.426,-271.713 271.938,-271.713"
   id="path1194" />
	<path
   fill="#808285"
   d="m 7849.694,648.426 c 0,101.409 -82.193,183.491 -183.378,183.491 -101.634,0 -183.604,-82.082 -183.604,-183.491 0,-101.181 81.97,-183.604 183.604,-183.604 101.184,-10e-4 183.378,82.423 183.378,183.604"
   id="path1196" />
	<path
   fill="#414042"
   d="m 7729.3,648.312 c 0,34.844 -28.194,63.211 -62.869,63.211 -34.674,0 -63.325,-28.367 -63.325,-63.211 0,-34.674 28.651,-63.097 63.325,-63.097 34.675,0 62.869,28.423 62.869,63.097"
   id="path1198" />
	
		<rect
   x="3039.708"
   y="1559.174"
   fill="none"
   stroke="#414042"
   stroke-width="58.2078"
   stroke-linejoin="round"
   width="9225.9336"
   height="5555.999"
   id="rect1200" />
	<rect
   x="3074.781"
   y="1589.528"
   fill="#bcbec0"
   width="9155.7305"
   height="5489.4932"
   id="rect1202" />
	
		<rect
   x="3074.781"
   y="1589.528"
   fill="none"
   stroke="#414042"
   stroke-width="58.2078"
   stroke-linejoin="round"
   width="9155.7305"
   height="5489.4932"
   id="rect1204" />
	<path
   fill="#414042"
   d="M 11357.168,8966.624 H 3975.353 c -53.886,0 -97.998,44.224 -97.998,98.111 v 5544.29 c 0,53.89 44.112,97.998 97.998,97.998 h 7381.815 c 54.002,0 98.111,-44.108 98.111,-97.998 v -5544.29 c 0,-53.887 -44.109,-98.111 -98.111,-98.111"
   id="path1206" />
	<path
   fill="none"
   stroke="#414042"
   stroke-width="58.2078"
   stroke-linejoin="round"
   d="M 11357.168,8966.624 H 3975.353 c -53.886,0 -97.998,44.224 -97.998,98.111 v 5544.29 c 0,53.89 44.112,97.998 97.998,97.998 h 7381.815 c 54.002,0 98.111,-44.108 98.111,-97.998 v -5544.29 c 0,-53.887 -44.109,-98.111 -98.111,-98.111 z"
   id="path1208" />
	<rect
   x="3956.3679"
   y="9052.9121"
   fill="#bcbec0"
   width="7420.6968"
   height="5583.2842"
   id="rect1210" />
	<path
   fill="#ffffff"
   d="m 15243.559,4877.583 h -168.256 c -42.633,0 -76.967,-34.673 -76.967,-77.419 v -368.461 c 0,-42.574 34.334,-77.193 76.967,-77.193 h 168.256 z"
   id="path1212" />
	<path
   fill="none"
   stroke="#414042"
   stroke-width="58.2078"
   stroke-linejoin="round"
   d="m 15243.559,4877.583 h -168.256 c -42.633,0 -76.967,-34.673 -76.967,-77.419 v -368.461 c 0,-42.574 34.334,-77.193 76.967,-77.193 h 168.256 z"
   id="path1214" />
	<path
   fill="#ffffff"
   d="m 15036.654,4646.402 c 0,14.779 12.156,27 27.279,27 h 212.477 c 15.129,0 26.951,-12.221 26.951,-27 v -47.636 c 0,-14.666 -11.822,-26.886 -26.951,-26.886 h -212.477 c -15.123,0 -27.279,12.221 -27.279,26.886 z"
   id="path1216" />
	<path
   fill="none"
   stroke="#414042"
   stroke-width="58.2078"
   stroke-linejoin="round"
   d="m 15036.654,4646.402 c 0,14.779 12.156,27 27.279,27 h 212.477 c 15.129,0 26.951,-12.221 26.951,-27 v -47.636 c 0,-14.666 -11.822,-26.886 -26.951,-26.886 h -212.477 c -15.123,0 -27.279,12.221 -27.279,26.886 z"
   id="path1218" />
	<path
   fill="#ffffff"
   d="m 88.848,4877.583 h 168.429 c 42.632,0 77.079,-34.673 77.079,-77.419 v -368.461 c 0,-42.574 -34.447,-77.193 -77.079,-77.193 H 88.848 Z"
   id="path1220" />
	<path
   fill="none"
   stroke="#414042"
   stroke-width="58.2078"
   stroke-linejoin="round"
   d="m 88.848,4877.583 h 168.429 c 42.632,0 77.079,-34.673 77.079,-77.419 v -368.461 c 0,-42.574 -34.447,-77.193 -77.079,-77.193 H 88.848 Z"
   id="path1222" />
	<path
   fill="#ffffff"
   d="m 295.929,4639.752 c 0,14.778 -12.222,27 -26.887,27 H 56.106 c -14.895,0 -27.002,-12.222 -27.002,-27 v -47.636 c 0,-14.666 12.107,-26.888 27.002,-26.888 h 212.937 c 14.665,0 26.887,12.222 26.887,26.888 v 47.636 z"
   id="path1224" />
	<path
   fill="none"
   stroke="#414042"
   stroke-width="58.2078"
   stroke-linejoin="round"
   d="m 295.929,4639.752 c 0,14.778 -12.222,27 -26.887,27 H 56.106 c -14.895,0 -27.002,-12.222 -27.002,-27 v -47.636 c 0,-14.666 12.107,-26.888 27.002,-26.888 h 212.937 c 14.665,0 26.887,12.222 26.887,26.888 v 47.636 z"
   id="path1226" />
	<path
   fill="none"
   stroke="#414042"
   stroke-width="58.2078"
   stroke-linecap="round"
   stroke-linejoin="round"
   d="m 13088.168,8417.287 c 13.869,-13.982 21.258,-30.469 21.258,-50.363 0,-112.778 -242.152,-280.579 -530.578,-280.579 -288.879,0 -531.258,167.801 -531.258,280.579 0,26.377 13.301,47.181 37.402,63.438"
   id="path1228" />
</g>
<ellipse
   style="fill:#ffe700;fill-opacity:1;stroke:#414042;stroke-width:2.19544;stroke-linecap:round;stroke-linejoin:round;stroke-miterlimit:4;stroke-dasharray:none;stroke-opacity:1"
   id="buttonB"
   cx="618.77161"
   cy="453.44058"
   rx="15.16728"
   ry="15.167278"
   class="theme-button"
   ojd-button="A" /><ellipse
   style="fill:#e05d64;fill-opacity:1;stroke:#414042;stroke-width:2.19544;stroke-linecap:round;stroke-linejoin:round;stroke-miterlimit:4;stroke-dasharray:none;stroke-opacity:1"
   id="buttonA"
   cx="650.5379"
   cy="423.35764"
   rx="15.16728"
   ry="15.167278"
   class="theme-button"
   ojd-button="B" /><ellipse
   style="fill:#3d6dab;fill-opacity:1;stroke:#414042;stroke-width:2.19544;stroke-linecap:round;stroke-linejoin:round;stroke-miterlimit:4;stroke-dasharray:none;stroke-opacity:1"
   id="buttonX"
   cx="618.77197"
   cy="393.28226"
   rx="15.16728"
   ry="15.167278"
   class="theme-button"
   ojd-button="Y" /><ellipse
   style="fill:#24aa74;fill-opacity:1;stroke:#414042;stroke-width:2.19544;stroke-linecap:round;stroke-linejoin:round;stroke-miterlimit:4;stroke-dasharray:none;stroke-opacity:1"
   id="buttonY"
   cx="587.00018"
   cy="423.358"
   rx="15.16728"
   ry="15.167278"
   class="theme-button"
   ojd-button="X" /><path
   style="color:#000000;font-style:normal;font-variant:normal;font-weight:normal;font-stretch:normal;font-size:medium;line-height:normal;font-family:sans-serif;font-variant-ligatures:normal;font-variant-position:normal;font-variant-caps:normal;font-variant-numeric:normal;font-variant-alternates:normal;font-variant-east-asian:normal;font-feature-settings:normal;font-variation-settings:normal;text-indent:0;text-align:start;text-decoration:none;text-decoration-line:none;text-decoration-style:solid;text-decoration-color:#000000;letter-spacing:normal;word-spacing:normal;text-transform:none;writing-mode:lr-tb;direction:ltr;text-orientation:mixed;dominant-baseline:auto;baseline-shift:baseline;text-anchor:start;white-space:normal;shape-padding:0;shape-margin:0;inline-size:0;clip-rule:nonzero;display:inline;overflow:visible;visibility:visible;isolation:auto;mix-blend-mode:normal;color-interpolation:sRGB;color-interpolation-filters:linearRGB;solid-color:#000000;solid-opacity:1;vector-effect:none;fill:none;fill-opacity:1;fill-rule:nonzero;stroke:none;stroke-width:0.0373581;stroke-linecap:butt;stroke-linejoin:round;stroke-miterlimit:4;stroke-dasharray:none;stroke-dashoffset:0;stroke-opacity:1;color-rendering:auto;image-rendering:auto;shape-rendering:auto;text-rendering:auto;enable-background:accumulate;stop-color:#000000"
   d="m 581.74211,509.24231 c -5.38312,0 -9.76421,4.39032 -9.76421,9.76843 0,5.37441 4.38169,9.75987 9.76421,9.75987 5.38247,0 9.75994,-4.3861 9.75994,-9.75987 0,-5.37743 -4.37683,-9.76843 -9.75994,-9.76843 z m 0,2.1745 c 4.20689,0 7.5854,3.38987 7.5854,7.59393 0,4.19938 -3.3778,7.58537 -7.5854,7.58537 -4.20764,0 -7.58971,-3.38666 -7.58971,-7.58537 0,-4.20346 3.38278,-7.59393 7.58971,-7.59393 z"
   id="path1068-1"
   sodipodi:nodetypes="ssssssssss" /><path
   fill="none"
   stroke="#414042"
   stroke-width="2.17453"
   stroke-linejoin="round"
   d="m 573.06527,519.02113 c 0,4.78654 3.88188,8.67268 8.67694,8.67268 4.79506,0 8.67267,-3.88614 8.67267,-8.67268 0,-4.79499 -3.87765,-8.67686 -8.67267,-8.67686 -4.79503,0 -8.67694,3.88191 -8.67694,8.67686 z"
   id="buttonStart"
   sodipodi:nodetypes="sssss"
   style="fill:#e6e6e6"
   class="theme-button"
   ojd-button="START" /><path
   fill="none"
   stroke="#414042"
   stroke-width="2.17453"
   stroke-linejoin="round"
   d="m 573.06517,552.12131 c 0,4.78654 3.88188,8.67268 8.67694,8.67268 4.79506,0 8.67267,-3.88614 8.67267,-8.67268 0,-4.79499 -3.87765,-8.67686 -8.67267,-8.67686 -4.79503,0 -8.67694,3.88191 -8.67694,8.67686 z"
   id="buttonSel"
   sodipodi:nodetypes="sssss"
   style="fill:#e6e6e6"
   class="theme-button"
   ojd-button="SELECT" /><text
   xml:space="preserve"
   style="font-style:normal;font-variant:normal;font-weight:normal;font-stretch:normal;font-size:21.3333px;line-height:1.25;font-family:'07NikumaruFont';-inkscape-font-specification:'07NikumaruFont';fill:#f9f9f9"
   x="643.78589"
   y="430.26962"
   id="text3396"><tspan
     sodipodi:role="line"
     id="tspan3394"
     x="643.78589"
     y="430.26962"
     style="font-style:normal;font-variant:normal;font-weight:normal;font-stretch:normal;font-size:21.3333px;font-family:dubai;-inkscape-font-specification:dubai">A</tspan></text><text
   xml:space="preserve"
   style="font-size:40px;line-height:1.25;font-family:GillSansBoldItalic;-inkscape-font-specification:GillSansBoldItalic"
   x="616.66211"
   y="454.1188"
   id="text3400"><tspan
     sodipodi:role="line"
     id="tspan3398"
     x="616.66211"
     y="454.1188" /></text><text
   xml:space="preserve"
   style="font-style:normal;font-variant:normal;font-weight:normal;font-stretch:normal;font-size:21.3333px;line-height:1.25;font-family:'07NikumaruFont';-inkscape-font-specification:'07NikumaruFont';fill:#f9f9f9"
   x="612.59412"
   y="460.35257"
   id="text3396-2"><tspan
     sodipodi:role="line"
     id="tspan3394-2"
     x="612.59412"
     y="460.35257"
     style="font-style:normal;font-variant:normal;font-weight:normal;font-stretch:normal;font-size:21.3333px;font-family:Dubai;-inkscape-font-specification:Dubai">B</tspan></text><text
   xml:space="preserve"
   style="font-style:normal;font-variant:normal;font-weight:normal;font-stretch:normal;font-size:21.3333px;line-height:1.25;font-family:'07NikumaruFont';-inkscape-font-specification:'07NikumaruFont';fill:#f9f9f9"
   x="580.61084"
   y="430.26999"
   id="text3396-2-2"><tspan
     sodipodi:role="line"
     id="tspan3394-2-9"
     x="580.61084"
     y="430.26999"
     style="font-style:normal;font-variant:normal;font-weight:normal;font-stretch:normal;font-size:21.3333px;font-family:dubai;-inkscape-font-specification:dubai">Y</tspan></text><text
   xml:space="preserve"
   style="font-style:normal;font-variant:normal;font-weight:normal;font-stretch:normal;font-size:21.3333px;line-height:1.25;font-family:'07NikumaruFont';-inkscape-font-specification:'07NikumaruFont';fill:#f9f9f9"
   x="612.53198"
   y="400.19424"
   id="text3396-2-2-1"><tspan
     sodipodi:role="line"
     id="tspan3394-2-9-0"
     x="612.53198"
     y="400.19424"
     style="font-style:normal;font-variant:normal;font-weight:normal;font-stretch:normal;font-size:21.3333px;font-family:dubai;-inkscape-font-specification:dubai">X</tspan></text></svg>
